HIERARCHY
ROOT root
{
	OFFSET 0.000000 0.000000 0.000000
	CHANNELS 6 Xposition Yposition Zposition Zrotation Yrotation Xrotation
	JOINT lhip
	{
		OFFSET 0.058581 -0.082280 -0.017664
		CHANNELS 3 Zrotation Yrotation Xrotation
		JOINT lknee
		{
			OFFSET 0.043451 -0.386469 0.008037
			CHANNELS 3 Zrotation Yrotation Xrotation
			JOINT lankle
			{
				OFFSET -0.014790 -0.426874 -0.037428
				CHANNELS 3 Zrotation Yrotation Xrotation
				JOINT ltoe
				{
					OFFSET 0.041054 -0.060286 0.122042
					CHANNELS 3 Zrotation Yrotation Xrotation
					End Site
					{
						OFFSET 0.000000 0.000000 0.000000
					}
				}
			}
		}
	}
	JOINT rhip
	{
		OFFSET -0.060310 -0.090513 -0.013543
		CHANNELS 3 Zrotation Yrotation Xrotation
		JOINT rknee
		{
			OFFSET -0.043257 -0.383688 -0.004843
			CHANNELS 3 Zrotation Yrotation Xrotation
			JOINT rankle
			{
				OFFSET 0.019056 -0.420046 -0.034562
				CHANNELS 3 Zrotation Yrotation Xrotation
				JOINT rtoe
				{
					OFFSET -0.034840 -0.062106 0.130323
					CHANNELS 3 Zrotation Yrotation Xrotation
					End Site
					{
						OFFSET 0.000000 0.000000 0.000000
					}
				}
			}
		}
	}
	JOINT lowerback
	{
		OFFSET 0.004439 0.124404 -0.038385
		CHANNELS 3 Zrotation Yrotation Xrotation
		JOINT upperback
		{
			OFFSET 0.004488 0.137956 0.026820
			CHANNELS 3 Zrotation Yrotation Xrotation
			JOINT chest
			{
				OFFSET -0.002265 0.056032 0.002855
				CHANNELS 3 Zrotation Yrotation Xrotation
				JOINT lowerneck
				{
					OFFSET -0.013390 0.211636 -0.033468
					CHANNELS 3 Zrotation Yrotation Xrotation
					JOINT upperneck
					{
						OFFSET 0.010113 0.088937 0.050410
						CHANNELS 3 Zrotation Yrotation Xrotation
						End Site
						{
							OFFSET 0.000000 0.000000 0.000000
						}
					}
				}
				JOINT lclavicle
				{
					OFFSET 0.071702 0.114000 -0.018898
					CHANNELS 3 Zrotation Yrotation Xrotation
					JOINT lshoulder
					{
						OFFSET 0.122921 0.045205 -0.019046
						CHANNELS 3 Zrotation Yrotation Xrotation
						JOINT lelbow
						{
							OFFSET 0.255332 -0.015649 -0.022946
							CHANNELS 3 Zrotation Yrotation Xrotation
							JOINT lwrist
							{
								OFFSET 0.265709 0.012698 -0.007375
								CHANNELS 3 Zrotation Yrotation Xrotation
								End Site
								{
									OFFSET 0.000000 0.000000 0.000000
								}
							}
						}
					}
				}
				JOINT rclavicle
				{
					OFFSET -0.082954 0.112472 -0.023707
					CHANNELS 3 Zrotation Yrotation Xrotation
					JOINT rshoulder
					{
						OFFSET -0.113228 0.046853 -0.008472
						CHANNELS 3 Zrotation Yrotation Xrotation
						JOINT relbow
						{
							OFFSET -0.260127 -0.014369 -0.031269
							CHANNELS 3 Zrotation Yrotation Xrotation
							JOINT rwrist
							{
								OFFSET -0.269108 0.006794 -0.006027
								CHANNELS 3 Zrotation Yrotation Xrotation
								End Site
								{
									OFFSET 0.000000 0.000000 0.000000
								}
							}
						}
					}
				}
			}
		}
	}
}
MOTION
Frames: 17
Frame Time: 0.033333
0.010931 -0.537279 0.796394 143.333916 3.267579 108.840656 -1.198056 -3.885215 -56.909851 -8.441526 22.119813 93.284221 4.565653 8.128820 -21.556044 0.000000 -0.000000 0.000000 -11.368756 -5.697708 -17.902989 12.232263 2.785380 61.872682 8.886980 3.413122 -24.009811 0.000000 -0.000000 0.000000 6.533218 10.008498 37.499109 2.472650 0.495181 -0.565267 0.789027 3.901185 1.760097 8.926332 -9.797859 -17.408030 5.314214 -5.312037 -11.001061 -34.050470 -9.417871 5.660904 -31.384297 28.929959 14.845542 -1.983208 -33.271164 11.010098 15.732262 -13.388162 20.263554 17.765600 25.695646 -5.691510 6.594011 12.176465 -19.687024 -31.462021 28.911713 -57.929259 1.902388 9.184718 -17.104761 
0.086665 -0.444471 0.795050 147.042017 3.446240 109.472521 0.009961 -6.528025 -66.639504 -9.373745 23.710835 77.474886 6.370472 8.503153 -20.967699 0.000000 -0.000000 0.000000 -11.225576 -5.155517 -2.718898 14.523046 10.576594 47.233478 16.229050 9.785449 -6.109330 0.000000 -0.000000 0.000000 5.291553 13.045240 35.154213 3.765428 -3.912989 -0.372774 1.577170 2.062696 4.845702 9.664722 -6.327195 -16.190443 6.097887 -5.640421 -10.001399 -31.513421 -3.511233 5.520154 -38.881831 34.467953 11.159012 -1.762853 -30.397676 8.664887 13.843309 -11.198414 17.154551 19.331147 14.771436 -11.001392 12.348787 13.282312 -12.979192 -36.227010 35.173061 -52.343030 5.797696 7.421383 -11.238653 
0.168779 -0.354354 0.790923 148.528985 4.842857 110.474141 -0.576070 -4.270912 -69.812477 -9.882437 27.254459 58.996096 6.249620 3.454705 -18.734226 0.000000 -0.000000 0.000000 -7.309647 -3.262658 9.747042 6.920753 14.406789 33.139761 21.619023 9.402998 9.281709 0.000000 -0.000000 0.000000 1.894661 15.091508 32.528462 4.038244 -6.344902 0.197733 2.218500 -0.125741 4.890318 10.823390 -6.784048 -11.304884 6.521678 0.671241 -10.140791 -30.007951 2.430283 8.962313 -53.756349 35.897540 2.502716 3.511162 -27.181898 5.124837 14.171815 -8.169634 8.384380 16.013614 6.536919 -12.097859 32.194601 13.266961 -7.303584 -49.505877 39.908714 -65.148902 9.239929 9.699996 -27.798814 
0.245479 -0.263078 0.776826 148.645129 8.531879 109.630239 -2.016822 -1.935077 -67.438252 -10.109886 27.548718 48.562349 13.640890 8.455513 -18.369007 0.000000 -0.000000 0.000000 -6.249091 -5.094090 14.345014 2.836335 6.339364 37.897852 13.946168 -1.186485 5.302416 0.000000 -0.000000 0.000000 1.356884 13.083252 32.514021 2.867469 -6.215842 -1.528708 1.737496 -1.257633 6.683929 10.448681 -7.821408 -11.433845 6.595833 7.274660 -7.385899 -34.248755 5.239737 9.715709 -62.904433 33.604719 -3.335583 5.631451 -23.010049 0.533578 15.648425 -4.124274 2.047395 18.154615 2.418054 -12.926949 40.651603 11.866831 -4.246457 -59.125972 46.604727 -72.005835 10.048951 11.672836 -33.359847 
0.312735 -0.171394 0.766071 148.534995 12.373339 108.813348 -1.795239 -1.820458 -63.019957 -3.541435 27.714382 62.163300 19.379750 10.156323 -30.962750 0.000000 -0.000000 0.000000 -7.722614 -7.027405 9.836734 0.864390 -0.256994 57.236823 12.571121 -5.072028 3.899767 0.000000 -0.000000 0.000000 2.270935 10.336579 34.070191 2.149273 -6.317867 -1.266506 1.619563 -1.416244 4.810828 9.193984 -8.885348 -11.345990 5.723963 13.420206 -7.136886 -39.418848 2.367855 8.813648 -68.600121 27.613390 -4.057371 7.078195 -18.994097 -4.014140 14.547956 -2.368245 0.018344 20.099916 5.512120 -10.147187 38.969269 10.272632 -4.009471 -64.993564 47.048093 -77.824022 7.997507 10.876015 -30.723470 
0.370759 -0.084337 0.762312 148.389965 12.622918 109.689583 -0.516569 -5.547290 -59.672883 -2.422388 25.217229 70.101029 18.619704 16.895156 -36.694068 0.000000 -0.000000 0.000000 -8.550723 -4.276920 -5.577983 2.389546 -3.178362 83.791382 8.462768 -8.517520 -0.186038 0.000000 -0.000000 0.000000 -0.079709 8.779583 34.628170 2.303872 -6.148345 -1.501788 1.580209 -2.449548 3.991885 10.440680 -6.769863 -14.067020 4.936314 14.574077 -7.297270 -39.590336 -2.908181 6.941180 -66.321465 20.727140 2.804379 5.908388 -22.734351 -1.779205 15.029790 -4.358921 -0.428833 19.341968 9.030249 -9.966604 38.454663 11.535881 -1.922657 -62.027683 41.861162 -77.368222 7.709612 10.577599 -34.617408 
0.425361 0.006333 0.764280 150.008485 10.904913 110.020953 -3.123604 -8.133543 -52.605721 -1.952916 22.541636 73.789882 15.555280 16.811082 -38.609780 0.000000 -0.000000 0.000000 -10.033940 -0.351128 -23.267007 2.572542 -5.952232 102.441044 4.955723 -8.593126 -4.555769 0.000000 -0.000000 0.000000 -1.624303 6.097259 36.617258 2.386137 -5.460904 -1.428157 0.735928 -3.171021 2.274522 11.893081 -3.649309 -15.510956 4.225588 11.271499 -8.541547 -37.838066 -9.545693 5.529000 -57.605278 13.381848 9.629510 8.236475 -27.153846 -0.236864 11.010760 -9.473568 4.841149 19.314817 12.173744 -10.003776 35.069679 12.401206 -1.912794 -54.322321 36.570077 -72.560275 10.929213 10.370067 -36.082482 
0.480666 0.104150 0.767755 153.582469 10.627546 109.062386 -7.177607 -5.539940 -41.127913 -5.899140 15.806045 72.741165 12.647356 17.886904 -38.658720 0.000000 -0.000000 0.000000 -10.118247 0.989101 -40.170992 0.772666 -5.660424 109.530385 1.845819 -11.085753 -8.866293 0.000000 -0.000000 0.000000 -1.030665 0.852523 39.719519 2.037558 -2.856896 -4.715750 0.407043 -3.436032 3.206562 11.718761 -2.739872 -16.393361 4.017010 9.733111 -5.896492 -34.806169 -12.403009 3.500544 -49.128868 7.481666 10.898183 13.046478 -37.206937 -0.172574 13.292187 -10.005603 11.436480 16.976773 14.431278 -10.822102 32.449410 11.929807 -1.792973 -48.011267 35.124925 -68.659257 9.677246 9.281476 -40.013020 
0.538357 0.209739 0.771181 159.356378 11.262160 109.011110 -6.323960 -1.511621 -29.086445 -11.007699 8.695876 69.893370 9.265097 16.519245 -36.091293 0.000000 -0.000000 0.000000 -12.110091 1.944588 -54.965091 -1.459119 -7.879433 105.010759 1.450596 -11.554535 -14.951074 0.000000 -0.000000 0.000000 0.361892 -5.502240 40.123113 3.041680 -0.699377 -6.765921 0.745872 -3.807733 4.714876 11.927544 0.588133 -17.037890 2.490386 8.507296 -3.971102 -31.097982 -10.328298 1.556825 -43.570099 3.125188 11.434296 20.007269 -54.960555 -8.597811 16.474272 -8.104295 5.831902 16.550055 13.416458 -11.829868 29.497897 15.595034 -1.451166 -48.599903 36.604427 -67.858969 9.273762 8.567004 -35.770672 
0.594128 0.327511 0.774270 163.064002 12.941304 109.147721 -2.449277 2.359854 -15.373832 -15.052370 1.374888 62.888043 5.400466 14.931908 -30.954457 0.000000 -0.000000 0.000000 -15.250391 1.731932 -66.033291 -0.119626 -11.115379 91.329010 2.608618 -8.588436 -17.602422 0.000000 -0.000000 0.000000 3.078811 -10.710271 37.684577 4.820582 1.347246 -5.921078 1.341507 -4.053551 4.850211 11.149733 3.650889 -16.526150 0.012284 7.872822 -2.473517 -28.220844 -8.038261 0.402735 -42.814397 3.341097 12.870633 29.469357 -67.259281 -17.014165 16.467191 -11.907521 2.500970 15.716132 12.772565 -11.922994 27.588215 19.280395 -2.920445 -58.428960 40.385171 -70.578033 16.009525 9.737666 -27.280868 
0.646226 0.453330 0.776073 162.531659 14.487046 109.942440 -0.470429 3.507481 -0.684252 -14.795448 -5.387107 49.559095 1.673026 13.212187 -21.758399 0.000000 -0.000000 0.000000 -17.453020 0.636780 -73.269249 4.734262 -12.057741 70.806821 5.708911 -1.699242 -15.883597 0.000000 -0.000000 0.000000 6.237012 -14.078842 32.172441 5.948605 3.573324 -3.941727 0.998618 -3.876172 5.302046 11.041216 6.483882 -15.023237 -4.198697 8.106995 -2.062436 -26.171588 -2.843090 0.909510 -46.225839 5.770921 14.099688 31.508284 -76.500334 -16.824797 17.336722 -11.273740 -0.079547 16.023970 11.028754 -12.638323 29.882664 28.395917 -0.661605 -77.225309 46.551516 -79.005856 11.810102 7.070015 -12.737118 
0.697169 0.586836 0.771973 158.764452 15.506731 108.596307 -4.647332 1.831947 14.100997 -7.711838 -10.781812 35.358987 -2.093045 12.850390 -7.343803 0.000000 -0.000000 0.000000 -16.584498 0.781363 -73.900363 6.245240 -11.696631 52.199399 10.011100 2.141428 -6.764787 0.000000 -0.000000 0.000000 8.924150 -14.606158 28.930894 6.220252 4.827668 -1.151194 1.709910 -2.689822 3.932180 8.801523 6.620856 -13.366656 -6.761016 9.959940 -4.381641 -26.398640 -0.969072 2.576947 -51.951126 12.333344 16.594160 19.348658 -77.952368 -5.885487 18.061035 -11.667235 -0.539671 16.924566 14.714644 -10.873045 28.966332 34.931998 2.511891 -98.220858 52.623506 -92.053669 6.870796 6.440556 10.167140 
0.749582 0.715138 0.762845 154.714013 16.349946 105.811653 -8.915102 1.275899 16.783376 -7.669988 -8.565804 44.716787 -1.706343 14.644108 -8.594033 0.000000 -0.000000 0.000000 -13.158977 3.287268 -70.040491 7.199893 -8.864966 50.071583 5.928175 1.428513 -4.757836 0.000000 -0.000000 0.000000 10.777159 -12.999173 29.704608 5.775497 6.617964 -0.160221 2.344768 -0.023267 2.760144 6.353104 4.279837 -14.123888 -7.172424 11.018604 -5.318839 -28.653784 -3.266591 3.389449 -56.688073 18.948536 16.144589 -0.537589 -70.680162 14.096620 15.180465 -11.514707 2.268939 17.745547 20.838732 -7.595643 24.449149 34.484969 2.786273 -116.905222 59.612381 -102.337911 2.858114 9.256677 23.001877 
0.794220 0.832611 0.767026 152.162784 17.624049 104.161702 -6.832103 2.096184 5.815406 -6.021538 2.334213 69.193802 -0.738808 16.517969 -13.103950 0.000000 -0.000000 0.000000 -12.063136 6.930387 -65.907392 7.207935 -8.744632 61.283755 3.421108 1.432856 -18.008490 0.000000 -0.000000 0.000000 12.729386 -11.543390 33.509494 3.907518 9.804267 -0.085014 1.420079 3.383610 1.019422 5.079941 2.081374 -17.985667 -5.687098 10.647569 -7.966966 -33.102880 -6.904692 3.547028 -58.006255 21.835919 14.615529 -3.218103 -57.152071 13.309276 13.398937 -10.278899 5.514163 20.563313 25.572610 -3.067763 19.762865 29.694736 1.415903 -111.604548 68.251356 -95.024876 -3.646453 15.455134 31.414135 
0.829200 0.944794 0.780903 151.828932 15.257805 104.025984 -5.920343 -0.413749 -11.945985 -3.726228 9.327468 92.960205 4.010936 16.073271 -16.063127 0.000000 -0.000000 0.000000 -10.736180 4.207283 -55.680256 8.173624 -4.551856 62.552578 0.695186 1.558756 -26.924728 0.000000 -0.000000 0.000000 12.571114 -6.599912 35.327627 2.259663 8.888154 -0.063827 1.326026 4.891071 0.580798 4.617308 -2.150540 -21.288599 -3.178369 9.827657 -11.408624 -37.003594 -9.368703 4.232962 -57.983489 20.197639 13.579548 -1.841374 -42.463883 4.933722 18.127721 -7.491742 0.397573 24.646748 28.766594 1.900100 12.629994 26.757649 -2.919394 -49.552067 67.724394 -36.647109 -6.574154 17.825102 34.664132 
0.861661 1.052810 0.800869 152.294918 13.479148 105.366970 -2.013209 -2.359581 -33.098907 -5.990939 14.343811 104.543772 3.975556 9.332202 -18.480075 0.000000 -0.000000 0.000000 -10.128238 1.360930 -46.321139 10.277604 0.820269 60.563910 1.141046 0.872612 -28.990729 0.000000 -0.000000 0.000000 11.101492 -1.475578 35.105648 1.709993 7.927413 -0.043169 1.296467 5.799908 0.279180 4.267406 -2.904004 -22.944242 -2.570247 8.169542 -12.956169 -37.462095 -9.008640 4.732319 -56.157558 21.063972 14.494680 -2.760102 -38.055431 13.516096 12.522593 -7.238853 4.754778 25.302069 31.444839 3.494993 9.626717 29.301890 -7.904394 -18.883968 39.861852 -8.975686 2.498706 8.141603 37.926480 
0.891426 1.170912 0.829070 152.895070 12.406783 104.680601 2.637750 -2.140729 -48.538795 -5.330835 18.068055 100.555364 4.493859 7.062739 -17.947056 0.000000 -0.000000 0.000000 -11.255115 -0.509675 -32.952904 11.625756 5.463336 54.740653 4.985972 3.568155 -24.005444 0.000000 -0.000000 0.000000 9.916550 2.973597 35.877077 1.082524 7.054832 0.919022 1.243914 6.939870 -0.404674 4.894282 -4.393776 -22.845342 -1.447382 6.916059 -13.395929 -36.778126 -8.067285 5.129112 -52.690995 23.047624 17.652461 -6.503047 -40.202429 23.858079 9.639354 -9.845645 6.622437 23.378633 33.580882 3.914964 10.127994 29.236520 -12.416746 -15.994459 12.463984 -23.141862 3.702221 2.942345 28.490796 
